<svg xmlns="http://www.w3.org/2000/svg" xmlns:xlink="http://www.w3.org/1999/xlink" width="1080" zoomAndPan="magnify" viewBox="0 0 810 809.999993" height="1080" preserveAspectRatio="xMidYMid meet" version="1.0"><defs><g/><clipPath id="413d254085"><path d="M 307.234375 172.65625 L 502.765625 172.65625 L 502.765625 368.1875 L 307.234375 368.1875 Z M 307.234375 172.65625 " clip-rule="nonzero"/></clipPath><clipPath id="62b181e6bc"><path d="M 405 172.65625 C 351.007812 172.65625 307.234375 216.429688 307.234375 270.421875 C 307.234375 324.417969 351.007812 368.1875 405 368.1875 C 458.992188 368.1875 502.765625 324.417969 502.765625 270.421875 C 502.765625 216.429688 458.992188 172.65625 405 172.65625 Z M 405 172.65625 " clip-rule="nonzero"/></clipPath><clipPath id="48786853e8"><path d="M 0.234375 0.65625 L 195.765625 0.65625 L 195.765625 196.1875 L 0.234375 196.1875 Z M 0.234375 0.65625 " clip-rule="nonzero"/></clipPath><clipPath id="6a86a7f057"><path d="M 98 0.65625 C 44.007812 0.65625 0.234375 44.429688 0.234375 98.421875 C 0.234375 152.417969 44.007812 196.1875 98 196.1875 C 151.992188 196.1875 195.765625 152.417969 195.765625 98.421875 C 195.765625 44.429688 151.992188 0.65625 98 0.65625 Z M 98 0.65625 " clip-rule="nonzero"/></clipPath><clipPath id="be940396dd"><rect x="0" width="196" y="0" height="197"/></clipPath></defs><g clip-path="url(#413d254085)"><g clip-path="url(#62b181e6bc)"><g transform="matrix(1, 0, 0, 1, 307, 172)"><g clip-path="url(#be940396dd)"><g clip-path="url(#48786853e8)"><g clip-path="url(#6a86a7f057)"><path fill="#000000" d="M 0.234375 0.65625 L 195.765625 0.65625 L 195.765625 196.1875 L 0.234375 196.1875 Z M 0.234375 0.65625 " fill-opacity="1" fill-rule="nonzero"/></g></g></g></g></g></g><g fill="#000000" fill-opacity="1"><g transform="translate(236.392169, 440.550055)"><g><path d="M 13.96875 -32.484375 L 13.96875 -21.9375 L 32.4375 -21.9375 L 32.4375 -14.53125 L 13.96875 -14.53125 L 13.96875 0 L 4.734375 0 L 4.734375 -39.90625 L 34.890625 -39.90625 L 34.890625 -32.484375 Z M 13.96875 -32.484375 "/></g></g></g><g fill="#000000" fill-opacity="1"><g transform="translate(271.95284, 440.550055)"><g><path d="M 16.46875 -31.125 C 21.21875 -31.125 24.863281 -29.992188 27.40625 -27.734375 C 29.957031 -25.472656 31.234375 -22.0625 31.234375 -17.5 L 31.234375 0 L 22.90625 0 L 22.90625 -3.8125 C 21.238281 -0.96875 18.125 0.453125 13.5625 0.453125 C 11.207031 0.453125 9.164062 0.0546875 7.4375 -0.734375 C 5.707031 -1.535156 4.382812 -2.640625 3.46875 -4.046875 C 2.5625 -5.453125 2.109375 -7.046875 2.109375 -8.828125 C 2.109375 -11.679688 3.179688 -13.925781 5.328125 -15.5625 C 7.472656 -17.195312 10.789062 -18.015625 15.28125 -18.015625 L 22.34375 -18.015625 C 22.34375 -19.953125 21.753906 -21.441406 20.578125 -22.484375 C 19.398438 -23.523438 17.632812 -24.046875 15.28125 -24.046875 C 13.644531 -24.046875 12.035156 -23.789062 10.453125 -23.28125 C 8.878906 -22.769531 7.539062 -22.078125 6.4375 -21.203125 L 3.25 -27.421875 C 4.914062 -28.597656 6.914062 -29.507812 9.25 -30.15625 C 11.59375 -30.800781 14 -31.125 16.46875 -31.125 Z M 15.78125 -5.53125 C 17.300781 -5.53125 18.648438 -5.878906 19.828125 -6.578125 C 21.015625 -7.285156 21.851562 -8.320312 22.34375 -9.6875 L 22.34375 -12.828125 L 16.25 -12.828125 C 12.59375 -12.828125 10.765625 -11.628906 10.765625 -9.234375 C 10.765625 -8.097656 11.210938 -7.195312 12.109375 -6.53125 C 13.003906 -5.863281 14.226562 -5.53125 15.78125 -5.53125 Z M 15.78125 -5.53125 "/></g></g></g><g fill="#000000" fill-opacity="1"><g transform="translate(307.11465, 440.550055)"><g><path d="M 22.75 -31.125 C 26.539062 -31.125 29.601562 -29.984375 31.9375 -27.703125 C 34.28125 -25.421875 35.453125 -22.039062 35.453125 -17.5625 L 35.453125 0 L 26.5625 0 L 26.5625 -16.1875 C 26.5625 -18.625 26.03125 -20.4375 24.96875 -21.625 C 23.90625 -22.820312 22.363281 -23.421875 20.34375 -23.421875 C 18.101562 -23.421875 16.316406 -22.726562 14.984375 -21.34375 C 13.660156 -19.957031 13 -17.894531 13 -15.15625 L 13 0 L 4.109375 0 L 4.109375 -42.296875 L 13 -42.296875 L 13 -27.46875 C 14.175781 -28.644531 15.597656 -29.546875 17.265625 -30.171875 C 18.941406 -30.804688 20.769531 -31.125 22.75 -31.125 Z M 22.75 -31.125 "/></g></g></g><g fill="#000000" fill-opacity="1"><g transform="translate(346.493608, 440.550055)"><g><path d="M 12.59375 -26.625 C 13.65625 -28.101562 15.085938 -29.222656 16.890625 -29.984375 C 18.703125 -30.742188 20.785156 -31.125 23.140625 -31.125 L 23.140625 -22.90625 C 22.148438 -22.988281 21.484375 -23.03125 21.140625 -23.03125 C 18.597656 -23.03125 16.601562 -22.316406 15.15625 -20.890625 C 13.71875 -19.460938 13 -17.328125 13 -14.484375 L 13 0 L 4.109375 0 L 4.109375 -30.671875 L 12.59375 -30.671875 Z M 12.59375 -26.625 "/></g></g></g><g fill="#000000" fill-opacity="1"><g transform="translate(371.910477, 440.550055)"><g><path d="M 23.890625 -1.484375 C 23.015625 -0.835938 21.9375 -0.351562 20.65625 -0.03125 C 19.382812 0.289062 18.046875 0.453125 16.640625 0.453125 C 12.992188 0.453125 10.171875 -0.472656 8.171875 -2.328125 C 6.179688 -4.191406 5.1875 -6.929688 5.1875 -10.546875 L 5.1875 -23.140625 L 0.453125 -23.140625 L 0.453125 -29.984375 L 5.1875 -29.984375 L 5.1875 -37.453125 L 14.078125 -37.453125 L 14.078125 -29.984375 L 21.71875 -29.984375 L 21.71875 -23.140625 L 14.078125 -23.140625 L 14.078125 -10.65625 C 14.078125 -9.363281 14.410156 -8.363281 15.078125 -7.65625 C 15.742188 -6.957031 16.679688 -6.609375 17.890625 -6.609375 C 19.296875 -6.609375 20.492188 -6.988281 21.484375 -7.75 Z M 23.890625 -1.484375 "/></g></g></g><g fill="#000000" fill-opacity="1"><g transform="translate(395.731547, 440.550055)"><g><path d="M 34.140625 -15.21875 C 34.140625 -15.101562 34.082031 -14.304688 33.96875 -12.828125 L 10.765625 -12.828125 C 11.191406 -10.921875 12.179688 -9.414062 13.734375 -8.3125 C 15.296875 -7.21875 17.234375 -6.671875 19.546875 -6.671875 C 21.140625 -6.671875 22.554688 -6.90625 23.796875 -7.375 C 25.035156 -7.851562 26.1875 -8.609375 27.25 -9.640625 L 31.984375 -4.5 C 29.085938 -1.195312 24.867188 0.453125 19.328125 0.453125 C 15.867188 0.453125 12.804688 -0.21875 10.140625 -1.5625 C 7.484375 -2.914062 5.429688 -4.785156 3.984375 -7.171875 C 2.546875 -9.566406 1.828125 -12.285156 1.828125 -15.328125 C 1.828125 -18.335938 2.535156 -21.046875 3.953125 -23.453125 C 5.378906 -25.867188 7.335938 -27.75 9.828125 -29.09375 C 12.316406 -30.445312 15.101562 -31.125 18.1875 -31.125 C 21.1875 -31.125 23.898438 -30.476562 26.328125 -29.1875 C 28.765625 -27.894531 30.675781 -26.039062 32.0625 -23.625 C 33.445312 -21.207031 34.140625 -18.40625 34.140625 -15.21875 Z M 18.234375 -24.390625 C 16.222656 -24.390625 14.53125 -23.816406 13.15625 -22.671875 C 11.789062 -21.535156 10.957031 -19.984375 10.65625 -18.015625 L 25.765625 -18.015625 C 25.460938 -19.953125 24.625 -21.5 23.25 -22.65625 C 21.882812 -23.8125 20.210938 -24.390625 18.234375 -24.390625 Z M 18.234375 -24.390625 "/></g></g></g><g fill="#000000" fill-opacity="1"><g transform="translate(431.691217, 440.550055)"><g><path d="M 22.75 -31.125 C 26.539062 -31.125 29.601562 -29.984375 31.9375 -27.703125 C 34.28125 -25.421875 35.453125 -22.039062 35.453125 -17.5625 L 35.453125 0 L 26.5625 0 L 26.5625 -16.1875 C 26.5625 -18.625 26.03125 -20.4375 24.96875 -21.625 C 23.90625 -22.820312 22.363281 -23.421875 20.34375 -23.421875 C 18.101562 -23.421875 16.316406 -22.726562 14.984375 -21.34375 C 13.660156 -19.957031 13 -17.894531 13 -15.15625 L 13 0 L 4.109375 0 L 4.109375 -30.671875 L 12.59375 -30.671875 L 12.59375 -27.078125 C 13.769531 -28.367188 15.234375 -29.363281 16.984375 -30.0625 C 18.734375 -30.769531 20.65625 -31.125 22.75 -31.125 Z M 22.75 -31.125 "/></g></g></g><g fill="#000000" fill-opacity="1"><g transform="translate(471.070151, 440.550055)"><g><path d="M 22 -39.90625 C 25.53125 -39.90625 28.597656 -39.3125 31.203125 -38.125 C 33.804688 -36.945312 35.8125 -35.273438 37.21875 -33.109375 C 38.625 -30.953125 39.328125 -28.390625 39.328125 -25.421875 C 39.328125 -22.492188 38.625 -19.9375 37.21875 -17.75 C 35.8125 -15.570312 33.804688 -13.898438 31.203125 -12.734375 C 28.597656 -11.578125 25.53125 -11 22 -11 L 13.96875 -11 L 13.96875 0 L 4.734375 0 L 4.734375 -39.90625 Z M 21.484375 -18.53125 C 24.265625 -18.53125 26.375 -19.125 27.8125 -20.3125 C 29.257812 -21.507812 29.984375 -23.210938 29.984375 -25.421875 C 29.984375 -27.660156 29.257812 -29.378906 27.8125 -30.578125 C 26.375 -31.773438 24.265625 -32.375 21.484375 -32.375 L 13.96875 -32.375 L 13.96875 -18.53125 Z M 21.484375 -18.53125 "/></g></g></g><g fill="#000000" fill-opacity="1"><g transform="translate(512.21571, 440.550055)"><g><path d="M 12.59375 -26.625 C 13.65625 -28.101562 15.085938 -29.222656 16.890625 -29.984375 C 18.703125 -30.742188 20.785156 -31.125 23.140625 -31.125 L 23.140625 -22.90625 C 22.148438 -22.988281 21.484375 -23.03125 21.140625 -23.03125 C 18.597656 -23.03125 16.601562 -22.316406 15.15625 -20.890625 C 13.71875 -19.460938 13 -17.328125 13 -14.484375 L 13 0 L 4.109375 0 L 4.109375 -30.671875 L 12.59375 -30.671875 Z M 12.59375 -26.625 "/></g></g></g><g fill="#000000" fill-opacity="1"><g transform="translate(536.264758, 440.550055)"><g><path d="M 18.703125 0.453125 C 15.460938 0.453125 12.5625 -0.21875 10 -1.5625 C 7.4375 -2.914062 5.429688 -4.785156 3.984375 -7.171875 C 2.546875 -9.566406 1.828125 -12.285156 1.828125 -15.328125 C 1.828125 -18.367188 2.546875 -21.085938 3.984375 -23.484375 C 5.429688 -25.878906 7.4375 -27.75 10 -29.09375 C 12.5625 -30.445312 15.460938 -31.125 18.703125 -31.125 C 21.929688 -31.125 24.816406 -30.445312 27.359375 -29.09375 C 29.898438 -27.75 31.894531 -25.878906 33.34375 -23.484375 C 34.789062 -21.085938 35.515625 -18.367188 35.515625 -15.328125 C 35.515625 -12.285156 34.789062 -9.566406 33.34375 -7.171875 C 31.894531 -4.785156 29.898438 -2.914062 27.359375 -1.5625 C 24.816406 -0.21875 21.929688 0.453125 18.703125 0.453125 Z M 18.703125 -6.84375 C 20.972656 -6.84375 22.835938 -7.609375 24.296875 -9.140625 C 25.765625 -10.679688 26.5 -12.742188 26.5 -15.328125 C 26.5 -17.910156 25.765625 -19.972656 24.296875 -21.515625 C 22.835938 -23.054688 20.972656 -23.828125 18.703125 -23.828125 C 16.421875 -23.828125 14.535156 -23.054688 13.046875 -21.515625 C 11.566406 -19.972656 10.828125 -17.910156 10.828125 -15.328125 C 10.828125 -12.742188 11.566406 -10.679688 13.046875 -9.140625 C 14.535156 -7.609375 16.421875 -6.84375 18.703125 -6.84375 Z M 18.703125 -6.84375 "/></g></g></g></svg>