<svg xmlns="http://www.w3.org/2000/svg" xmlns:xlink="http://www.w3.org/1999/xlink" width="1080" zoomAndPan="magnify" viewBox="0 0 810 809.999993" height="1080" preserveAspectRatio="xMidYMid meet" version="1.0"><defs><g/><clipPath id="1af40dbbc1"><path d="M 231.160156 153.886719 L 578.839844 153.886719 L 578.839844 501.566406 L 231.160156 501.566406 Z M 231.160156 153.886719 " clip-rule="nonzero"/></clipPath><clipPath id="50e2290bac"><path d="M 405 153.886719 C 308.992188 153.886719 231.160156 231.71875 231.160156 327.726562 C 231.160156 423.738281 308.992188 501.566406 405 501.566406 C 501.007812 501.566406 578.839844 423.738281 578.839844 327.726562 C 578.839844 231.71875 501.007812 153.886719 405 153.886719 Z M 405 153.886719 " clip-rule="nonzero"/></clipPath><clipPath id="031413e7d6"><path d="M 0.160156 0.886719 L 347.839844 0.886719 L 347.839844 348.566406 L 0.160156 348.566406 Z M 0.160156 0.886719 " clip-rule="nonzero"/></clipPath><clipPath id="3fcf9dfe68"><path d="M 174 0.886719 C 77.992188 0.886719 0.160156 78.71875 0.160156 174.726562 C 0.160156 270.738281 77.992188 348.566406 174 348.566406 C 270.007812 348.566406 347.839844 270.738281 347.839844 174.726562 C 347.839844 78.71875 270.007812 0.886719 174 0.886719 Z M 174 0.886719 " clip-rule="nonzero"/></clipPath><clipPath id="abf191095b"><rect x="0" width="348" y="0" height="349"/></clipPath><clipPath id="dcf16326e0"><rect x="0" width="601" y="0" height="126"/></clipPath></defs><g clip-path="url(#1af40dbbc1)"><g clip-path="url(#50e2290bac)"><g transform="matrix(1, 0, 0, 1, 231, 153)"><g clip-path="url(#abf191095b)"><g clip-path="url(#031413e7d6)"><g clip-path="url(#3fcf9dfe68)"><path fill="#000000" d="M 0.160156 0.886719 L 347.839844 0.886719 L 347.839844 348.566406 L 0.160156 348.566406 Z M 0.160156 0.886719 " fill-opacity="1" fill-rule="nonzero"/></g></g></g></g></g></g><g transform="matrix(1, 0, 0, 1, 105, 532)"><g clip-path="url(#dcf16326e0)"><g fill="#000000" fill-opacity="1"><g transform="translate(0.190963, 98.239379)"><g><path d="M 24.828125 -57.765625 L 24.828125 -39.015625 L 57.671875 -39.015625 L 57.671875 -25.84375 L 24.828125 -25.84375 L 24.828125 0 L 8.40625 0 L 8.40625 -70.9375 L 62.015625 -70.9375 L 62.015625 -57.765625 Z M 24.828125 -57.765625 "/></g></g></g><g fill="#000000" fill-opacity="1"><g transform="translate(63.42297, 98.239379)"><g><path d="M 29.28125 -55.328125 C 37.726562 -55.328125 44.210938 -53.316406 48.734375 -49.296875 C 53.265625 -45.285156 55.53125 -39.222656 55.53125 -31.109375 L 55.53125 0 L 40.734375 0 L 40.734375 -6.796875 C 37.765625 -1.722656 32.226562 0.8125 24.125 0.8125 C 19.9375 0.8125 16.300781 0.101562 13.21875 -1.3125 C 10.144531 -2.738281 7.796875 -4.695312 6.171875 -7.1875 C 4.554688 -9.6875 3.75 -12.523438 3.75 -15.703125 C 3.75 -20.773438 5.65625 -24.765625 9.46875 -27.671875 C 13.289062 -30.578125 19.1875 -32.03125 27.15625 -32.03125 L 39.734375 -32.03125 C 39.734375 -35.46875 38.679688 -38.113281 36.578125 -39.96875 C 34.484375 -41.832031 31.34375 -42.765625 27.15625 -42.765625 C 24.25 -42.765625 21.394531 -42.304688 18.59375 -41.390625 C 15.789062 -40.484375 13.410156 -39.253906 11.453125 -37.703125 L 5.78125 -48.75 C 8.75 -50.84375 12.3125 -52.460938 16.46875 -53.609375 C 20.625 -54.753906 24.894531 -55.328125 29.28125 -55.328125 Z M 28.078125 -9.828125 C 30.773438 -9.828125 33.171875 -10.453125 35.265625 -11.703125 C 37.359375 -12.953125 38.847656 -14.796875 39.734375 -17.234375 L 39.734375 -22.796875 L 28.890625 -22.796875 C 22.398438 -22.796875 19.15625 -20.671875 19.15625 -16.421875 C 19.15625 -14.390625 19.945312 -12.78125 21.53125 -11.59375 C 23.125 -10.414062 25.304688 -9.828125 28.078125 -9.828125 Z M 28.078125 -9.828125 "/></g></g></g><g fill="#000000" fill-opacity="1"><g transform="translate(125.945745, 98.239379)"><g><path d="M 40.4375 -55.328125 C 47.195312 -55.328125 52.648438 -53.300781 56.796875 -49.25 C 60.953125 -45.195312 63.03125 -39.1875 63.03125 -31.21875 L 63.03125 0 L 47.21875 0 L 47.21875 -28.78125 C 47.21875 -33.101562 46.269531 -36.328125 44.375 -38.453125 C 42.488281 -40.585938 39.753906 -41.65625 36.171875 -41.65625 C 32.191406 -41.65625 29.019531 -40.421875 26.65625 -37.953125 C 24.289062 -35.484375 23.109375 -31.816406 23.109375 -26.953125 L 23.109375 0 L 7.296875 0 L 7.296875 -75.203125 L 23.109375 -75.203125 L 23.109375 -48.84375 C 25.203125 -50.9375 27.734375 -52.539062 30.703125 -53.65625 C 33.679688 -54.769531 36.925781 -55.328125 40.4375 -55.328125 Z M 40.4375 -55.328125 "/></g></g></g><g fill="#000000" fill-opacity="1"><g transform="translate(195.967218, 98.239379)"><g><path d="M 22.390625 -47.328125 C 24.285156 -49.960938 26.835938 -51.953125 30.046875 -53.296875 C 33.253906 -54.648438 36.953125 -55.328125 41.140625 -55.328125 L 41.140625 -40.734375 C 39.390625 -40.867188 38.207031 -40.9375 37.59375 -40.9375 C 33.070312 -40.9375 29.523438 -39.671875 26.953125 -37.140625 C 24.390625 -34.609375 23.109375 -30.804688 23.109375 -25.734375 L 23.109375 0 L 7.296875 0 L 7.296875 -54.515625 L 22.390625 -54.515625 Z M 22.390625 -47.328125 "/></g></g></g><g fill="#000000" fill-opacity="1"><g transform="translate(241.162081, 98.239379)"><g><path d="M 42.46875 -2.640625 C 40.90625 -1.484375 38.992188 -0.617188 36.734375 -0.046875 C 34.472656 0.523438 32.09375 0.8125 29.59375 0.8125 C 23.101562 0.8125 18.082031 -0.84375 14.53125 -4.15625 C 10.988281 -7.46875 9.21875 -12.332031 9.21875 -18.75 L 9.21875 -41.140625 L 0.8125 -41.140625 L 0.8125 -53.3125 L 9.21875 -53.3125 L 9.21875 -66.578125 L 25.03125 -66.578125 L 25.03125 -53.3125 L 38.609375 -53.3125 L 38.609375 -41.140625 L 25.03125 -41.140625 L 25.03125 -18.953125 C 25.03125 -16.648438 25.617188 -14.875 26.796875 -13.625 C 27.984375 -12.375 29.660156 -11.75 31.828125 -11.75 C 34.328125 -11.75 36.453125 -12.425781 38.203125 -13.78125 Z M 42.46875 -2.640625 "/></g></g></g><g fill="#000000" fill-opacity="1"><g transform="translate(283.519384, 98.239379)"><g><path d="M 60.703125 -27.0625 C 60.703125 -26.851562 60.601562 -25.429688 60.40625 -22.796875 L 19.15625 -22.796875 C 19.894531 -19.421875 21.648438 -16.753906 24.421875 -14.796875 C 27.191406 -12.835938 30.640625 -11.859375 34.765625 -11.859375 C 37.597656 -11.859375 40.113281 -12.28125 42.3125 -13.125 C 44.507812 -13.96875 46.550781 -15.300781 48.4375 -17.125 L 56.859375 -8 C 51.722656 -2.125 44.222656 0.8125 34.359375 0.8125 C 28.210938 0.8125 22.769531 -0.382812 18.03125 -2.78125 C 13.300781 -5.1875 9.65625 -8.515625 7.09375 -12.765625 C 4.53125 -17.023438 3.25 -21.859375 3.25 -27.265625 C 3.25 -32.597656 4.515625 -37.410156 7.046875 -41.703125 C 9.578125 -45.992188 13.054688 -49.335938 17.484375 -51.734375 C 21.910156 -54.128906 26.859375 -55.328125 32.328125 -55.328125 C 37.660156 -55.328125 42.488281 -54.175781 46.8125 -51.875 C 51.144531 -49.582031 54.539062 -46.289062 57 -42 C 59.46875 -37.71875 60.703125 -32.738281 60.703125 -27.0625 Z M 32.4375 -43.375 C 28.851562 -43.375 25.84375 -42.359375 23.40625 -40.328125 C 20.976562 -38.304688 19.492188 -35.539062 18.953125 -32.03125 L 45.8125 -32.03125 C 45.269531 -35.46875 43.78125 -38.21875 41.34375 -40.28125 C 38.914062 -42.34375 35.945312 -43.375 32.4375 -43.375 Z M 32.4375 -43.375 "/></g></g></g><g fill="#000000" fill-opacity="1"><g transform="translate(347.460867, 98.239379)"><g><path d="M 40.4375 -55.328125 C 47.195312 -55.328125 52.648438 -53.300781 56.796875 -49.25 C 60.953125 -45.195312 63.03125 -39.1875 63.03125 -31.21875 L 63.03125 0 L 47.21875 0 L 47.21875 -28.78125 C 47.21875 -33.101562 46.269531 -36.328125 44.375 -38.453125 C 42.488281 -40.585938 39.753906 -41.65625 36.171875 -41.65625 C 32.191406 -41.65625 29.019531 -40.421875 26.65625 -37.953125 C 24.289062 -35.484375 23.109375 -31.816406 23.109375 -26.953125 L 23.109375 0 L 7.296875 0 L 7.296875 -54.515625 L 22.390625 -54.515625 L 22.390625 -48.140625 C 24.484375 -50.429688 27.082031 -52.203125 30.1875 -53.453125 C 33.300781 -54.703125 36.71875 -55.328125 40.4375 -55.328125 Z M 40.4375 -55.328125 "/></g></g></g><g fill="#000000" fill-opacity="1"><g transform="translate(417.482299, 98.239379)"><g><path d="M 39.125 -70.9375 C 45.40625 -70.9375 50.859375 -69.890625 55.484375 -67.796875 C 60.109375 -65.703125 63.671875 -62.726562 66.171875 -58.875 C 68.671875 -55.03125 69.921875 -50.472656 69.921875 -45.203125 C 69.921875 -39.992188 68.671875 -35.445312 66.171875 -31.5625 C 63.671875 -27.675781 60.109375 -24.703125 55.484375 -22.640625 C 50.859375 -20.585938 45.40625 -19.5625 39.125 -19.5625 L 24.828125 -19.5625 L 24.828125 0 L 8.40625 0 L 8.40625 -70.9375 Z M 38.203125 -32.9375 C 43.140625 -32.9375 46.890625 -34 49.453125 -36.125 C 52.023438 -38.257812 53.3125 -41.285156 53.3125 -45.203125 C 53.3125 -49.179688 52.023438 -52.234375 49.453125 -54.359375 C 46.890625 -56.492188 43.140625 -57.5625 38.203125 -57.5625 L 24.828125 -57.5625 L 24.828125 -32.9375 Z M 38.203125 -32.9375 "/></g></g></g><g fill="#000000" fill-opacity="1"><g transform="translate(490.645044, 98.239379)"><g><path d="M 22.390625 -47.328125 C 24.285156 -49.960938 26.835938 -51.953125 30.046875 -53.296875 C 33.253906 -54.648438 36.953125 -55.328125 41.140625 -55.328125 L 41.140625 -40.734375 C 39.390625 -40.867188 38.207031 -40.9375 37.59375 -40.9375 C 33.070312 -40.9375 29.523438 -39.671875 26.953125 -37.140625 C 24.390625 -34.609375 23.109375 -30.804688 23.109375 -25.734375 L 23.109375 0 L 7.296875 0 L 7.296875 -54.515625 L 22.390625 -54.515625 Z M 22.390625 -47.328125 "/></g></g></g><g fill="#000000" fill-opacity="1"><g transform="translate(533.407723, 98.239379)"><g><path d="M 33.234375 0.8125 C 27.492188 0.8125 22.34375 -0.382812 17.78125 -2.78125 C 13.21875 -5.1875 9.65625 -8.515625 7.09375 -12.765625 C 4.53125 -17.023438 3.25 -21.859375 3.25 -27.265625 C 3.25 -32.671875 4.53125 -37.5 7.09375 -41.75 C 9.65625 -46.007812 13.21875 -49.335938 17.78125 -51.734375 C 22.34375 -54.128906 27.492188 -55.328125 33.234375 -55.328125 C 38.984375 -55.328125 44.117188 -54.128906 48.640625 -51.734375 C 53.171875 -49.335938 56.71875 -46.007812 59.28125 -41.75 C 61.851562 -37.5 63.140625 -32.671875 63.140625 -27.265625 C 63.140625 -21.859375 61.851562 -17.023438 59.28125 -12.765625 C 56.71875 -8.515625 53.171875 -5.1875 48.640625 -2.78125 C 44.117188 -0.382812 38.984375 0.8125 33.234375 0.8125 Z M 33.234375 -12.15625 C 37.296875 -12.15625 40.625 -13.523438 43.21875 -16.265625 C 45.820312 -19.003906 47.125 -22.671875 47.125 -27.265625 C 47.125 -31.859375 45.820312 -35.519531 43.21875 -38.25 C 40.625 -40.988281 37.296875 -42.359375 33.234375 -42.359375 C 29.179688 -42.359375 25.835938 -40.988281 23.203125 -38.25 C 20.566406 -35.519531 19.25 -31.859375 19.25 -27.265625 C 19.25 -22.671875 20.566406 -19.003906 23.203125 -16.265625 C 25.835938 -13.523438 29.179688 -12.15625 33.234375 -12.15625 Z M 33.234375 -12.15625 "/></g></g></g></g></g></svg>