<svg width="199" height="199" viewBox="0 0 199 199" fill="currentcolor" xmlns="http://www.w3.org/2000/svg">
<path d="M28.0928 178.92C30.5404 178.92 32.4242 179.532 33.7441 180.756C35.0881 181.956 35.7607 183.792 35.7607 186.264V198H33.3125V195.029C32.8201 195.842 32.1373 196.521 31.2607 197.064C30.0847 197.808 28.5959 198.18 26.7959 198.18C25.3801 198.18 24.1438 197.952 23.0879 197.496C22.056 197.016 21.2639 196.368 20.7119 195.552C20.1601 194.712 19.8848 193.752 19.8848 192.672C19.8848 191.688 20.1124 190.8 20.5684 190.008C21.0483 189.192 21.8163 188.544 22.8721 188.064C23.9521 187.56 25.3924 187.308 27.1924 187.308H33.2041V186.156C33.2041 184.548 32.7479 183.312 31.8359 182.448C30.9479 181.584 29.6158 181.152 27.8398 181.152C26.6162 181.152 25.4524 181.356 24.3486 181.764C23.2446 182.172 22.308 182.712 21.54 183.384L20.3887 181.476C21.3486 180.66 22.5009 180.035 23.8447 179.604C25.1886 179.148 26.605 178.92 28.0928 178.92ZM84.9951 179.1H90.7549V181.224H84.9951V192.528C84.9952 193.632 85.2713 194.484 85.8232 195.084C86.3992 195.684 87.2155 195.984 88.2715 195.984C89.3994 195.984 90.3351 195.66 91.0791 195.012L91.9795 196.848C91.4755 197.304 90.8635 197.64 90.1436 197.856C89.4476 198.072 88.7274 198.18 87.9834 198.18C86.2074 198.18 84.8389 197.7 83.8789 196.74C82.919 195.78 82.4395 194.424 82.4395 192.672V181.224H79.0557V179.1H82.4395V174.924H84.9951V179.1ZM103.309 178.92C105.084 178.92 106.657 179.328 108.024 180.144C109.416 180.936 110.509 182.064 111.301 183.528C112.093 184.968 112.488 186.636 112.488 188.532C112.488 188.652 112.476 188.784 112.452 188.928V189.324H96.5654C96.6499 190.486 96.9533 191.53 97.4766 192.456C98.1246 193.536 99.0127 194.388 100.141 195.012C101.293 195.612 102.6 195.912 104.064 195.912C105.216 195.912 106.285 195.708 107.269 195.3C108.276 194.892 109.14 194.268 109.86 193.428L111.301 195.084C110.461 196.092 109.405 196.86 108.133 197.388C106.885 197.916 105.504 198.18 103.992 198.18C102.024 198.18 100.297 197.772 98.8086 196.956C97.3206 196.116 96.1564 194.976 95.3164 193.536C94.4764 192.072 94.0567 190.404 94.0566 188.532C94.0566 186.66 94.4523 185.004 95.2441 183.564C96.0601 182.124 97.1646 180.996 98.5566 180.18C99.9726 179.34 101.557 178.92 103.309 178.92ZM188.746 178.92C190.618 178.92 192.275 179.328 193.715 180.144C195.179 180.96 196.319 182.088 197.135 183.528C197.975 184.968 198.395 186.636 198.395 188.532C198.394 190.404 197.975 192.072 197.135 193.536C196.319 194.976 195.179 196.116 193.715 196.956C192.251 197.772 190.594 198.18 188.746 198.18C186.922 198.18 185.278 197.772 183.814 196.956C182.374 196.116 181.235 194.976 180.395 193.536C179.555 192.072 179.135 190.404 179.135 188.532C179.135 186.636 179.555 184.968 180.395 183.528C181.235 182.088 182.374 180.96 183.814 180.144C185.254 179.328 186.898 178.92 188.746 178.92ZM17.2803 175.104H2.66406V185.004H15.6963V187.308H2.66406V198H0V172.8H17.2803V175.104ZM45.2588 182.363C45.8451 181.44 46.6372 180.689 47.6348 180.108C48.9547 179.316 50.5266 178.92 52.3506 178.92C53.8866 178.92 55.2308 179.22 56.3828 179.82C57.5587 180.396 58.4712 181.284 59.1191 182.484C59.7909 183.684 60.1269 185.196 60.127 187.02V198H57.5703V187.272C57.5703 185.281 57.0665 183.78 56.0586 182.772C55.0746 181.74 53.6827 181.224 51.8828 181.224C50.5388 181.224 49.3625 181.5 48.3545 182.052C47.3706 182.58 46.6028 183.36 46.0508 184.392C45.5228 185.4 45.2588 186.624 45.2588 188.064V198H42.7031V171.288H45.2588V182.363ZM76.5352 181.404H76.2471C76.1511 181.38 76.0549 181.368 75.959 181.368C73.967 181.368 72.4063 181.98 71.2783 183.204C70.1506 184.404 69.587 186.12 69.5869 188.352V198H67.0312V179.1H69.4785V182.746C70.0192 181.6 70.823 180.709 71.8906 180.072C73.1386 179.304 74.6872 178.92 76.5352 178.92V181.404ZM127.339 178.92C128.875 178.92 130.219 179.22 131.371 179.82C132.547 180.396 133.459 181.284 134.107 182.484C134.779 183.684 135.115 185.196 135.115 187.02V198H132.559V187.272C132.559 185.281 132.055 183.78 131.047 182.772C130.063 181.74 128.671 181.224 126.871 181.224C125.527 181.224 124.351 181.5 123.343 182.052C122.359 182.58 121.591 183.36 121.039 184.392C120.511 185.4 120.247 186.624 120.247 188.064V198H117.691V179.1H120.139V182.54C120.734 181.536 121.563 180.725 122.623 180.108C123.943 179.316 125.515 178.92 127.339 178.92ZM151.991 172.8C154.127 172.8 155.963 173.148 157.499 173.844C159.035 174.516 160.211 175.5 161.027 176.796C161.867 178.068 162.287 179.616 162.287 181.44C162.287 183.216 161.867 184.752 161.027 186.048C160.211 187.32 159.035 188.304 157.499 189C155.963 189.696 154.127 190.044 151.991 190.044H145.223V198H142.559V172.8H151.991ZM176.555 181.404H176.267C176.171 181.38 176.074 181.368 175.979 181.368C173.987 181.368 172.426 181.98 171.298 183.204C170.17 184.404 169.607 186.12 169.606 188.352V198H167.051V179.1H169.498V182.746C170.039 181.6 170.843 180.709 171.91 180.072C173.158 179.304 174.707 178.92 176.555 178.92V181.404ZM27.2646 189.216C25.4406 189.216 24.1682 189.54 23.4482 190.188C22.7525 190.836 22.4044 191.64 22.4043 192.6C22.4043 193.68 22.8241 194.544 23.6641 195.192C24.5041 195.84 25.6804 196.164 27.1924 196.164C28.6323 196.164 29.8684 195.84 30.9004 195.192C31.9564 194.52 32.7241 193.56 33.2041 192.312V189.216H27.2646ZM188.782 181.152C187.438 181.152 186.239 181.464 185.183 182.088C184.127 182.688 183.286 183.54 182.662 184.644C182.038 185.748 181.727 187.044 181.727 188.532C181.727 189.996 182.038 191.292 182.662 192.42C183.286 193.524 184.127 194.388 185.183 195.012C186.239 195.612 187.426 195.912 188.746 195.912C190.114 195.912 191.327 195.612 192.383 195.012C193.439 194.388 194.266 193.524 194.866 192.42C195.49 191.292 195.803 189.996 195.803 188.532C195.803 187.044 195.49 185.748 194.866 184.644C194.266 183.54 193.439 182.688 192.383 182.088C191.327 181.464 190.126 181.152 188.782 181.152ZM145.223 187.704H151.919C154.439 187.704 156.348 187.164 157.644 186.084C158.963 184.98 159.623 183.432 159.623 181.44C159.623 179.425 158.963 177.864 157.644 176.76C156.348 175.656 154.439 175.104 151.919 175.104H145.223V187.704ZM103.309 181.116C102.013 181.116 100.848 181.416 99.8164 182.016C98.7844 182.616 97.9803 183.456 97.4043 184.536C96.9452 185.397 96.6723 186.357 96.5791 187.416H110.041C109.949 186.353 109.664 185.393 109.177 184.536C108.601 183.456 107.809 182.616 106.801 182.016C105.793 181.416 104.629 181.116 103.309 181.116ZM98.8965 0C139.213 0 171.896 32.6832 171.896 73C171.896 113.317 139.213 146 98.8965 146C58.5797 146 25.8965 113.317 25.8965 73C25.8965 32.6832 58.5797 0 98.8965 0Z" fill="black"/>
</svg>
